<?xml version="1.0" encoding="UTF-8"?>
<svg id="Layer_1" xmlns="http://www.w3.org/2000/svg" version="1.1" viewBox="0 0 5000 693.09">
  <!-- Generator: Adobe Illustrator 30.1.0, SVG Export Plug-In . SVG Version: 2.1.1 Build 136)  -->
  <defs>
    <style>
      .st0 {
        fill: #fff;
      }
    </style>
  </defs>
  <g>
    <path class="st0" d="M3506.74,589.83V114.81h80.19v398.91h216.79v76.11h-296.98Z"/>
    <path class="st0" d="M4720.86,589.83h-207.95V114.81h184.85c32.16,0,59.91,3.85,83.25,11.55,23.33,7.71,40.66,18.12,51.99,31.26,21.75,24.46,32.62,52.1,32.62,82.91,0,37.15-11.79,64.79-35.34,82.91-8.61,6.35-14.5,10.31-17.67,11.89-3.17,1.59-8.83,4.19-16.99,7.82,29.44,6.35,52.89,19.6,70.34,39.75,17.44,20.17,26.16,45.19,26.16,75.09,0,33.08-11.33,62.3-33.98,87.67-26.74,29.45-72.49,44.17-137.27,44.17ZM4593.1,311.89h101.94c57.99,0,86.99-19.71,86.99-59.12,0-22.65-7.03-38.96-21.07-48.93-14.05-9.96-35.79-14.95-65.24-14.95h-102.62v123ZM4593.1,515.76h125.72c29.44,0,51.99-4.64,67.62-13.93,15.63-9.28,23.45-26.84,23.45-52.67,0-42.14-33.76-63.2-101.26-63.2h-115.53v129.8Z"/>
    <path class="st0" d="M4158.31,250.96l140.23,271h-280.45l140.23-271M4158.31,103.25l-251.78,486.58h503.56l-251.78-486.58h0Z"/>
  </g>
  <path class="st0" d="M3361.45,346.54"/>
  <g>
    <path class="st0" d="M428.65,153.54c33.07,27.64,49.61,70.23,49.61,127.76s-16.88,99.68-50.63,126.4c-33.76,26.74-85.52,40.09-155.28,40.09h-84.27v139.31h-80.19V112.09h163.1c72.04,0,124.59,13.83,157.66,41.45ZM371.91,349.6c16.08-16.99,24.12-41.9,24.12-74.75s-10.19-56.07-30.58-69.66c-20.39-13.59-52.33-20.39-95.82-20.39h-81.55v190.28h93.1c44.4,0,74.64-8.49,90.72-25.48Z"/>
    <path class="st0" d="M961.92,266.35c0,78.38-34.21,127.76-102.62,148.15l124.36,172.61h-101.94l-113.49-159.7h-105.33v159.7h-80.19V112.09h176.69c72.48,0,124.36,12.23,155.62,36.7,31.26,24.46,46.89,63.66,46.89,117.57ZM855.22,333.63c16.31-14.04,24.47-36.58,24.47-67.62s-8.39-52.33-25.14-63.88c-16.77-11.55-46.67-17.33-89.7-17.33h-101.94v169.89h99.9c45.3,0,76.11-7.02,92.42-21.07Z"/>
    <path class="st0" d="M1088.43,112.09h80.19v475.02h-80.19V112.09Z"/>
    <path class="st0" d="M1453.19,174.61c-23.34,0-42.47,4.76-57.42,14.27-14.95,9.51-22.43,23.9-22.43,43.15s7.48,33.98,22.43,44.17c14.95,10.19,46.77,21.18,95.48,32.96,48.7,11.79,85.39,28.32,110.09,49.61,24.69,21.3,37.04,52.67,37.04,94.12s-15.63,75.09-46.89,100.92c-31.26,25.82-72.27,38.73-123,38.73-74.31,0-140.23-25.59-197.76-76.79l50.29-60.48c48.02,41.69,97.86,62.52,149.51,62.52,25.82,0,46.32-5.54,61.5-16.65,15.17-11.1,22.77-25.82,22.77-44.17s-7.14-32.62-21.41-42.81c-14.27-10.19-38.85-19.47-73.73-27.86-34.89-8.38-61.4-16.08-79.51-23.11-18.13-7.02-34.21-16.19-48.25-27.52-28.1-21.29-42.13-53.91-42.13-97.86s15.97-77.81,47.91-101.6c31.94-23.78,71.46-35.68,118.59-35.68,30.35,0,60.48,4.99,90.38,14.95,29.9,9.97,55.73,24.02,77.47,42.13l-42.81,60.48c-14.05-12.68-33.08-23.11-57.09-31.26-24.02-8.16-47.69-12.23-71.02-12.23Z"/>
    <path class="st0" d="M1817.78,587.11h-80.19V112.09h125.04l143.39,298.33,143.39-298.33h124.36v475.02h-80.19V216.06l-165.82,329.59h-44.85l-165.14-329.59v371.05Z"/>
    <path class="st0" d="M2803.17,521.53c-48.03,46.89-107.37,70.34-178.05,70.34s-130.03-23.45-178.05-70.34c-48.03-46.89-72.04-105.33-72.04-175.33s24.01-128.44,72.04-175.33c48.02-46.89,107.37-70.34,178.05-70.34s130.02,23.45,178.05,70.34c48.02,46.89,72.04,105.34,72.04,175.33s-24.02,128.44-72.04,175.33ZM2744.38,224.22c-32.4-33.52-72.15-50.29-119.27-50.29s-86.88,16.76-119.27,50.29c-32.4,33.53-48.59,74.19-48.59,121.98s16.19,88.46,48.59,121.98c32.39,33.53,72.14,50.29,119.27,50.29s86.87-16.76,119.27-50.29c32.39-33.52,48.59-74.18,48.59-121.98s-16.2-88.45-48.59-121.98Z"/>
    <path class="st0" d="M1713.6,346.54"/>
  </g>
  <path class="st0" d="M3192.63,452.22c-.23.7-1.4,1.32-1.85,1.17s-1.22-.84-1.41-1.42l-17.52-53.6c-.17-.51-.79-1.32-1.19-1.39s-1.19.17-1.77.48l-66.54,36.79c-.62.34-1.79.3-2.23.02s-.71-1.69-.42-2.19l37.11-63.98-32.9-20.29c-.55-.34-.88-1.61-.65-1.97s.74-.81,1.34-1.18l32.23-19.92-37.23-63.94c-.23-.4.11-1.67.48-1.92s1.54-.39,2.04-.12l67.22,37.02c.92.51,2.13,0,2.42-.91l17.56-53.7c.21-.63,1-1.39,1.49-1.48s1.65.58,1.81,1.07l17.66,53.95c.38,1.16,1.64,1.53,2.68.95l67.22-37.09c.43-.24,1.79.14,1.99.55.2.41.33,1.54.07,1.99l-36.29,62.11c-.6,1.03-.18,2.03.72,2.58l31.35,19.04c.37.22.87.97.98,1.34s-.36,1.38-.83,1.66l-33.12,20.21,37.23,64.01c.22.38.04,1.62-.19,1.99-.27.44-1.54.69-2.12.37l-66.92-37.03c-.44-.24-1.11-.45-1.42-.44-.4.02-1.09.75-1.24,1.22l-17.78,54.05Z"/>
</svg>