<?xml version="1.0" encoding="UTF-8"?>
<svg id="Layer_1" xmlns="http://www.w3.org/2000/svg" version="1.1" viewBox="0 0 5000 5000">
  <!-- Generator: Adobe Illustrator 30.1.0, SVG Export Plug-In . SVG Version: 2.1.1 Build 136)  -->
  <defs>
    <style>
      .st0 {
        fill: #fff;
      }
    </style>
  </defs>
  <path class="st0" d="M3511.35,2515.9l-367.6,227.55c-8.61,5.33-11.41,16.54-6.33,25.29l422.73,728.08c9.52,16.4-8.6,34.93-25.2,25.77l-783.68-431.95c-10.26-5.66-23.14-.59-26.8,10.54l-206.7,628.39c-5.64,17.15-29.89,17.15-35.53,0l-206.7-628.39c-3.66-11.13-16.54-16.19-26.8-10.54l-783.68,431.95c-16.61,9.15-34.73-9.37-25.2-25.77l422.73-728.08c5.08-8.76,2.28-19.97-6.33-25.29l-367.6-227.55c-11.81-7.31-11.81-24.49,0-31.81l367.6-227.55c8.61-5.33,11.41-16.54,6.33-25.29l-422.73-728.08c-9.52-16.4,8.6-34.93,25.2-25.77l783.68,431.95c10.26,5.66,23.14.59,26.8-10.54l206.7-628.39c5.64-17.15,29.89-17.15,35.53,0l206.7,628.39c3.66,11.13,16.54,16.19,26.8,10.54l783.68-431.95c16.61-9.15,34.73,9.37,25.2,25.77l-422.73,728.08c-5.08,8.76-2.28,19.97,6.33,25.29l367.6,227.55c11.81,7.31,11.81,24.49,0,31.81Z"/>
</svg>