<?xml version="1.0" encoding="UTF-8"?>
<svg id="Layer_1" xmlns="http://www.w3.org/2000/svg" version="1.1" viewBox="950 950 3100 3100">
  <!-- Generator: Adobe Illustrator 30.1.0, SVG Export Plug-In . SVG Version: 2.1.1 Build 136)  -->
  <defs>
    <style>
      .st0 {
        fill: #fff;
      }
    </style>
  </defs>
  <path d="M3511.35,2515.9l-367.6,227.55c-8.61,5.33-11.41,16.54-6.33,25.29l422.73,728.08c9.52,16.4-8.6,34.93-25.2,25.77l-783.68-431.95c-10.26-5.66-23.14-.59-26.8,10.54l-206.7,628.39c-5.64,17.15-29.89,17.15-35.53,0l-206.7-628.39c-3.66-11.13-16.54-16.19-26.8-10.54l-783.68,431.95c-16.61,9.15-34.73-9.37-25.2-25.77l422.73-728.08c5.08-8.76,2.28-19.97-6.33-25.29l-367.6-227.55c-11.81-7.31-11.81-24.49,0-31.81l367.6-227.55c8.61-5.33,11.41-16.54,6.33-25.29l-422.73-728.08c-9.52-16.4,8.6-34.93,25.2-25.77l783.68,431.95c10.26,5.66,23.14.59,26.8-10.54l206.7-628.39c5.64-17.15,29.89-17.15,35.53,0l206.7,628.39c3.66,11.13,16.54,16.19,26.8,10.54l783.68-431.95c16.61-9.15,34.73,9.37,25.2,25.77l-422.73,728.08c-5.08,8.76-2.28,19.97,6.33,25.29l367.6,227.55c11.81,7.31,11.81,24.49,0,31.81Z"/>
  <g>
    <g>
      <path class="st0" d="M3325.74,6270.32v-389.62h65.77v327.19h177.81v62.43h-243.58Z"/>
      <path class="st0" d="M4321.57,6270.32h-170.56v-389.62h151.61c26.38,0,49.14,3.16,68.28,9.48,19.13,6.32,33.35,14.87,42.64,25.64,17.84,20.07,26.76,42.74,26.76,68,0,30.47-9.67,53.14-28.99,68-7.06,5.21-11.9,8.46-14.49,9.75-2.6,1.31-7.25,3.44-13.94,6.41,24.15,5.21,43.38,16.08,57.69,32.61,14.3,16.54,21.46,37.07,21.46,61.59,0,27.13-9.29,51.1-27.87,71.9-21.93,24.16-59.46,36.23-112.59,36.23ZM4216.78,6042.35h83.61c47.56,0,71.35-16.16,71.35-48.49,0-18.58-5.77-31.95-17.28-40.13-11.52-8.17-29.36-12.26-53.51-12.26h-84.17v100.89ZM4216.78,6209.57h103.12c24.15,0,42.64-3.81,55.46-11.43,12.82-7.61,19.23-22.02,19.23-43.2,0-34.56-27.69-51.84-83.05-51.84h-94.76v106.46Z"/>
      <path class="st0" d="M3860.16,5992.37l115.02,222.27h-230.03l115.02-222.27M3860.16,5871.23l-206.51,399.1h413.02l-206.51-399.1h0Z"/>
    </g>
    <path class="st0" d="M3206.57,6070.77"/>
    <g>
      <path class="st0" d="M801.06,5912.47c27.12,22.67,40.69,57.6,40.69,104.79s-13.85,81.75-41.53,103.68c-27.69,21.93-70.14,32.89-127.36,32.89h-69.12v114.27h-65.77v-389.62h133.78c59.08,0,102.19,11.34,129.32,34ZM754.52,6073.28c13.19-13.94,19.79-34.37,19.79-61.31s-8.36-45.99-25.08-57.13c-16.72-11.15-42.92-16.72-78.59-16.72h-66.89v156.07h76.36c36.41,0,61.22-6.97,74.41-20.9Z"/>
      <path class="st0" d="M1238.45,6005c0,64.29-28.06,104.79-84.17,121.51l102,141.58h-83.61l-93.09-130.99h-86.4v130.99h-65.77v-389.62h144.92c59.45,0,102,10.03,127.64,30.1,25.64,20.07,38.46,52.21,38.46,96.43ZM1150.94,6060.18c13.38-11.51,20.07-30,20.07-55.46s-6.88-42.92-20.62-52.39c-13.75-9.48-38.28-14.21-73.58-14.21h-83.61v139.35h81.94c37.15,0,62.43-5.76,75.81-17.28Z"/>
      <path class="st0" d="M1342.22,5878.47h65.77v389.62h-65.77v-389.62Z"/>
      <path class="st0" d="M1641.39,5929.75c-19.14,0-34.84,3.9-47.1,11.71-12.26,7.8-18.39,19.6-18.39,35.39s6.13,27.87,18.39,36.23c12.26,8.36,38.36,17.37,78.31,27.03,39.94,9.67,70.04,23.23,90.3,40.69,20.25,17.47,30.38,43.2,30.38,77.2s-12.82,61.59-38.46,82.77c-25.64,21.18-59.28,31.77-100.89,31.77-60.95,0-115.02-20.99-162.2-62.99l41.25-49.61c39.38,34.19,80.27,51.28,122.63,51.28,21.18,0,37.99-4.55,50.44-13.66,12.45-9.1,18.67-21.18,18.67-36.23s-5.85-26.76-17.56-35.11c-11.71-8.36-31.87-15.97-60.48-22.85-28.62-6.87-50.36-13.19-65.22-18.95-14.87-5.76-28.06-13.28-39.57-22.57-23.04-17.46-34.56-44.22-34.56-80.27s13.1-63.82,39.3-83.33c26.2-19.51,58.61-29.26,97.27-29.26,24.89,0,49.61,4.09,74.13,12.26,24.53,8.18,45.71,19.7,63.54,34.56l-35.12,49.61c-11.52-10.4-27.13-18.95-46.82-25.64-19.7-6.69-39.11-10.03-58.25-10.03Z"/>
      <path class="st0" d="M1940.44,6268.09h-65.77v-389.62h102.56l117.61,244.7,117.61-244.7h102v389.62h-65.77v-304.34l-136,270.34h-36.79l-135.45-270.34v304.34Z"/>
      <path class="st0" d="M2748.66,6214.3c-39.39,38.46-88.07,57.69-146.04,57.69s-106.65-19.23-146.04-57.69c-39.39-38.46-59.08-86.4-59.08-143.81s19.69-105.35,59.08-143.81c39.38-38.46,88.07-57.69,146.04-57.69s106.64,19.23,146.04,57.69c39.38,38.46,59.08,86.4,59.08,143.81s-19.7,105.35-59.08,143.81ZM2700.44,5970.44c-26.57-27.5-59.18-41.25-97.82-41.25s-71.26,13.75-97.82,41.25c-26.57,27.5-39.85,60.85-39.85,100.05s13.28,72.56,39.85,100.05c26.56,27.5,59.17,41.25,97.82,41.25s71.25-13.74,97.82-41.25c26.56-27.5,39.85-60.84,39.85-100.05s-13.29-72.55-39.85-100.05Z"/>
      <path class="st0" d="M1854.99,6070.77"/>
    </g>
    <path class="st0" d="M3068.1,6157.45c-.19.57-1.15,1.08-1.52.96s-1-.69-1.15-1.17l-14.37-43.97c-.14-.42-.65-1.08-.98-1.14s-.98.14-1.45.4l-54.58,30.17c-.51.28-1.47.24-1.83.02s-.58-1.38-.34-1.8l30.44-52.48-26.98-16.64c-.45-.28-.73-1.32-.54-1.62s.6-.66,1.1-.97l26.43-16.33-30.53-52.45c-.19-.33.09-1.37.39-1.58s1.27-.32,1.67-.1l55.14,30.36c.76.42,1.75,0,1.99-.74l14.4-44.05c.17-.52.82-1.14,1.22-1.22s1.35.47,1.48.88l14.48,44.25c.31.95,1.35,1.25,2.2.78l55.14-30.42c.35-.19,1.47.12,1.63.45s.27,1.27.06,1.63l-29.76,50.94c-.49.84-.15,1.67.59,2.12l25.71,15.61c.3.18.72.79.81,1.1s-.3,1.13-.68,1.37l-27.17,16.58,30.54,52.5c.18.31.03,1.33-.15,1.63-.22.36-1.26.56-1.74.3l-54.89-30.37c-.36-.2-.91-.37-1.17-.36-.32.02-.89.62-1.02,1l-14.58,44.33Z"/>
  </g>
</svg>
